:SAMPLES-PER-SECOND 30
:FULLY-SPECIFIED
:DEGREES
617
root  -38.3706 34.6776 5.55371 -173.104 38.2332 179.455
RightUpLeg  -16.8167 -18.2801 -2.63013
RightLeg  6.99821 0.885205 0.052379
RightFoot  14.2621 0.0214097 0.372041
RightToes  -27.3985 -0.128403 -0.235626
Spine  -1.8351 1.01398 -1.77037
Spine1  -3.71576 2.11309 -2.81588
HEad  -76.5553 -0.615221 13.2236
LeftShoulder1  -1.94126e-019 -3.10601e-018 -2.51263e-017
LeftArm  13.9627 31.1277 -69.1475
LeftForeArm  122.164 -73.0596 -140.419
LeftHand  0.31749 -1.43049 -5.29347
RightShoulder  -4.96962e-017 0 -2.36833e-017
RightArm  21.0601 -22.6853 71.8485
RightForeArm  146.099 80.1215 117.488
RightHand  -0.0759057 4.11474 -1.17856
LeftUpLeg  -5.81056 -0.157026 -7.25121
LeftLeg  6.86244 19.8126 1.07812
LeftFoot  -2.38286 -0.0241955 -0.692561
LeftToes  0.312632 1.49739e-006 1.00523e-007
618
root  -38.3828 34.6684 5.50515 -173.132 37.929 179.314
RightUpLeg  -17.3129 -18.5525 -2.8154
RightLeg  8.09457 0.867693 0.0680424
RightFoot  13.6345 0.0223432 0.359322
RightToes  -27.3494 -0.127903 -0.235107
Spine  -1.8184 0.942654 -1.70239
Spine1  -3.67795 1.97417 -2.67855
HEad  -76.5552 -0.235139 13.4196
LeftShoulder1  -1.94126e-019 -3.10601e-018 -2.51263e-017
LeftArm  14.0038 30.8739 -69.2907
LeftForeArm  122.982 -73.0522 -140.571
LeftHand  0.317507 -1.62386 -5.20623
RightShoulder  -4.96962e-017 0 -2.36833e-017
RightArm  20.5514 -22.7383 71.7861
RightForeArm  146.867 80.0372 118.37
RightHand  -0.0696907 4.10422 -1.12478
LeftUpLeg  -5.75954 -0.349881 -7.40194
LeftLeg  6.73424 19.6923 1.02853
LeftFoot  -2.35274 -0.0254529 -0.676296
LeftToes  0.465049 1.49739e-006 1.00523e-007
619
root  -38.3921 34.6573 5.45884 -173.174 37.6135 179.131
RightUpLeg  -17.7947 -18.589 -3.06565
RightLeg  9.18114 0.588102 0.0576644
RightFoot  13.0037 0.0269461 0.288967
RightToes  -27.476 -0.127278 -0.234436
Spine  -1.79822 0.878175 -1.63487
Spine1  -3.63343 1.84889 -2.54247
HEad  -76.5837 0.084735 13.5513
LeftShoulder1  -1.94126e-019 -3.10601e-018 -2.51263e-017
LeftArm  13.9299 30.552 -69.3873
LeftForeArm  123.199 -73.0813 -140.534
LeftHand  0.320127 -1.58428 -5.24848
RightShoulder  -4.96962e-017 0 -2.36833e-017
RightArm  20.15 -22.7978 71.7417
RightForeArm  147.203 79.9894 118.825
RightHand  -0.0751565 4.02402 -1.19644
LeftUpLeg  -5.76536 -0.618145 -7.57997
LeftLeg  6.70157 19.6424 1.01503
LeftFoot  -2.3262 -0.0261099 -0.66468
LeftToes  0.520558 1.49739e-006 1.00523e-007
620
root  -38.3938 34.6436 5.41751 -173.248 37.2688 178.937
RightUpLeg  -18.3184 -18.781 -3.29266
RightLeg  10.4107 0.443736 0.0532905
RightFoot  12.2241 0.0287364 0.253138
RightToes  -27.2993 -0.126522 -0.233605
Spine  -1.77527 0.809001 -1.55461
Spine1  -3.5857 1.71876 -2.38228
HEad  -76.5748 0.26941 13.4986
LeftShoulder1  -1.94126e-019 -3.10601e-018 -2.51263e-017
LeftArm  13.9602 30.2283 -69.4492
LeftForeArm  122.675 -73.2719 -139.973
LeftHand  0.316176 -1.97891 -4.95872
RightShoulder  -4.96962e-017 0 -2.36833e-017
RightArm  19.909 -22.8546 71.6864
RightForeArm  146.941 79.9972 118.683
RightHand  -0.0704542 3.96643 -1.14165
LeftUpLeg  -5.78525 -0.600077 -7.74947
LeftLeg  6.75418 19.287 1.01476
LeftFoot  -2.33642 -0.0265201 -0.651825
LeftToes  0.54643 1.49739e-006 1.00523e-007
621
root  -38.3878 34.6294 5.38091 -173.341 36.8463 178.781
RightUpLeg  -18.784 -19.0625 -3.48976
RightLeg  11.6482 0.296912 0.0423183
RightFoot  11.4412 0.0298916 0.22028
RightToes  -27.2771 -0.125627 -0.232603
Spine  -1.67943 0.766448 -1.48003
Spine1  -3.39192 1.64068 -2.23406
HEad  -76.8155 0.248824 13.4761
LeftShoulder1  -1.94126e-019 -3.10601e-018 -2.51263e-017
LeftArm  14.0765 29.6877 -69.4583
LeftForeArm  122.636 -73.3438 -139.784
LeftHand  0.316436 -1.91765 -4.87348
RightShoulder  -4.96962e-017 0 -2.36833e-017
RightArm  19.4537 -22.8796 71.7879
RightForeArm  146.034 80.0299 118.14
RightHand  -0.0523508 3.97978 -0.916685
LeftUpLeg  -5.85195 -0.811089 -7.87547
LeftLeg  7.00609 19.0841 1.08704
LeftFoot  -2.42412 -0.0244078 -0.67272
LeftToes  0.63067 1.49739e-006 1.00523e-007
